HIERARCHY
ROOT Hips
{
	OFFSET -0.179506 -22.333345 2.821913
	CHANNELS 6 Xposition Yposition Zposition Zrotation Yrotation Xrotation 
	JOINT LeftUpLeg
	{
		OFFSET 6.951974 -9.140623 -0.681533
		CHANNELS 3 Zrotation Yrotation Xrotation
		JOINT LeftLeg
		{
			OFFSET 3.427654 -37.519855 -0.449580
			CHANNELS 3 Zrotation Yrotation Xrotation
			JOINT LeftFoot
			{
				OFFSET -1.359570 -39.796059 -4.369333
				CHANNELS 3 Zrotation Yrotation Xrotation
				JOINT LeftToe
				{
					OFFSET 2.635814 -5.579078 11.928840
					CHANNELS 3 Zrotation Yrotation Xrotation
					End Site
					{
						OFFSET 0.000000 0.000000 0.000000
					}
				}
			}
		}
	}
	JOINT RightUpLeg
	{
		OFFSET -6.767048 -9.052170 -0.431982
		CHANNELS 3 Zrotation Yrotation Xrotation
		JOINT RightLeg
		{
			OFFSET -3.829005 -38.256897 -0.885003
			CHANNELS 3 Zrotation Yrotation Xrotation
			JOINT RightFoot
			{
				OFFSET 1.577377 -39.841461 -4.231180
				CHANNELS 3 Zrotation Yrotation Xrotation
				JOINT RightToe
				{
					OFFSET -2.537174 -4.814398 12.334795
					CHANNELS 3 Zrotation Yrotation Xrotation
					End Site
					{
						OFFSET 0.000000 0.000000 0.000000
					}
				}
			}
		}
	}
	JOINT Spine
	{
		OFFSET -0.253288 10.896323 -2.669631
		CHANNELS 3 Zrotation Yrotation Xrotation
		JOINT Spine1
		{
			OFFSET 0.548704 13.518043 0.109247
			CHANNELS 3 Zrotation Yrotation Xrotation
			JOINT Spine2
			{
				OFFSET 0.145701 5.292222 2.542457
				CHANNELS 3 Zrotation Yrotation Xrotation
				JOINT Neck
				{
					OFFSET -0.277840 21.387037 -4.285703
					CHANNELS 3 Zrotation Yrotation Xrotation
					JOINT Head
					{
						OFFSET 0.515184 6.496960 5.134897
						CHANNELS 3 Zrotation Yrotation Xrotation
						End Site
						{
							OFFSET 0.000000 0.000000 0.000000
						}
					}
				}
				JOINT LeftShoulder
				{
					OFFSET 7.884473 12.174932 -3.408961
					CHANNELS 3 Zrotation Yrotation Xrotation
					JOINT LeftArm
					{
						OFFSET 9.097692 3.046888 -0.886815
						CHANNELS 3 Zrotation Yrotation Xrotation
						JOINT LeftForeArm
						{
							OFFSET 25.961220 -1.277207 -2.745643
							CHANNELS 3 Zrotation Yrotation Xrotation
							JOINT LeftHand
							{
								OFFSET 24.923361 0.898606 -0.117091
								CHANNELS 3 Zrotation Yrotation Xrotation
								End Site
								{
									OFFSET 0.000000 0.000000 0.000000
								}
							}
						}
					}
				}
				JOINT RightShoulder
				{
					OFFSET -8.175920 11.883285 -3.861528
					CHANNELS 3 Zrotation Yrotation Xrotation
					JOINT RightArm
					{
						OFFSET -9.601238 3.255117 -0.914307
						CHANNELS 3 Zrotation Yrotation Xrotation
						JOINT RightForeArm
						{
							OFFSET -25.374195 -1.332924 -2.140099
							CHANNELS 3 Zrotation Yrotation Xrotation
							JOINT RightHand
							{
								OFFSET -25.529810 0.777228 -0.555919
								CHANNELS 3 Zrotation Yrotation Xrotation
								End Site
								{
									OFFSET 0.000000 0.000000 0.000000
								}
							}
						}
					}
				}
			}
		}
	}
}
MOTION
Frames: 13
Frame Time: 0.033333
3.774988 3.673182 100.555237 -59.806180 5.489221 73.159908 19.182304 5.818151 -3.915719 0.914542 14.915084 49.859489 -5.435093 4.703417 -8.776424 nan nan nan -5.786767 -14.045501 6.758296 -1.934201 -15.530862 32.841761 6.563215 -2.764928 -4.248992 nan nan nan -7.691580 6.644654 10.920581 3.447078 -4.376606 7.298733 2.137635 0.558258 -3.298621 -2.694461 -16.000089 10.815407 11.826850 -17.545549 8.776271 -5.449879 -12.351087 -0.347616 -69.525334 -37.490692 24.742617 -177.131866 -79.794718 -156.091571 14.004588 -31.354897 -48.536686 7.371681 0.106570 0.689800 48.954525 -4.387853 -9.649694 -65.963148 52.521034 -50.105069 16.173169 22.382963 -24.467304 
3.951204 3.475767 99.975632 -60.590801 4.737473 73.427310 19.693934 5.933136 -3.743933 2.084803 15.313723 48.630440 -5.526729 5.386335 -9.207730 nan nan nan -5.874860 -13.728485 6.954966 -2.439019 -14.864393 31.738606 6.256671 -3.141276 -6.541890 nan nan nan -7.593125 6.614644 10.996315 3.334813 -4.187085 7.153548 2.089658 0.741942 -3.202945 -2.339241 -15.709151 10.120968 11.834633 -18.067140 8.830949 -5.583447 -12.383424 -0.509866 -69.530638 -37.814997 24.848866 -179.046748 -79.454698 -153.773688 13.879758 -31.233046 -49.093915 7.777061 0.461402 0.517314 48.117041 -3.740788 -9.871357 -65.463184 51.890779 -49.361945 15.942287 21.965537 -24.732364 
4.103444 3.262608 99.388855 -61.217992 4.109851 73.751981 20.309428 6.036902 -3.558388 3.291044 15.758082 47.207894 -5.605100 6.165980 -9.431806 nan nan nan -6.013244 -13.423606 6.966719 -3.205977 -14.615415 31.070629 6.411814 -2.820700 -8.589498 nan nan nan -7.574310 6.470420 11.000886 3.312779 -4.041380 7.087238 2.148507 0.855055 -3.293939 -2.024401 -15.471497 9.693121 11.652554 -18.489620 8.897655 -5.813616 -12.381539 -0.638646 -69.560990 -38.092391 25.087837 178.959683 -79.236234 -151.345819 13.807362 -31.185462 -49.115801 8.164390 0.949863 0.454080 47.175743 -3.162933 -9.919931 -64.564261 51.075515 -48.449254 15.568621 22.262904 -25.045595 
4.250350 3.059342 98.794785 -61.727128 3.655089 74.121854 21.054963 6.174780 -3.413259 4.463144 16.195266 45.673631 -5.467988 6.920521 -9.676946 nan nan nan -6.049666 -13.074735 6.751963 -3.731495 -14.113111 30.699252 6.558617 -2.379774 -10.767376 nan nan nan -7.500958 6.040769 11.046608 3.315783 -3.988486 7.013532 2.193265 1.035954 -3.520299 -1.655153 -15.163621 9.159092 11.251697 -18.720592 9.427887 -6.023993 -12.075149 -0.859110 -69.752673 -38.333255 25.405485 177.653613 -79.158757 -149.677884 13.581263 -31.352185 -48.975514 8.639890 1.522541 0.545120 46.161533 -2.390135 -9.792322 -63.523689 49.863861 -47.606270 15.582407 22.847103 -24.469485 
4.423848 2.846912 98.210861 -62.223484 3.370474 74.554252 21.897528 6.531241 -3.354690 5.553601 16.475693 44.107181 -5.430902 7.434883 -9.862953 nan nan nan -6.046767 -12.792174 6.231814 -3.950151 -13.231898 30.654714 6.425575 -2.239315 -12.516127 nan nan nan -7.304398 5.582117 11.023800 3.400421 -3.924948 6.949625 2.273970 1.186788 -3.744412 -1.372460 -15.017926 8.554979 10.676308 -18.856176 10.089278 -6.418908 -11.870927 -1.057992 -69.894929 -38.569173 25.512362 176.347074 -79.117685 -147.844712 12.776239 -31.700253 -48.301112 9.206019 1.988565 0.475769 44.771340 -1.495271 -10.077592 -62.542157 49.079891 -46.685146 16.957894 22.887348 -22.685963 
4.624712 2.609966 97.643745 -62.693359 3.227237 75.013671 22.805130 6.841426 -3.347300 6.496719 16.784296 42.528522 -5.448510 7.944243 -10.031049 nan nan nan -6.021342 -12.246786 5.556427 -3.850301 -12.499561 30.748190 6.015602 -2.488540 -13.928538 nan nan nan -7.040583 5.146218 10.836276 3.574535 -3.819116 7.048842 2.399291 1.228542 -3.945338 -1.127074 -14.953513 8.101297 10.097830 -18.988824 10.478069 -6.968782 -11.919022 -1.037776 -69.850401 -38.913526 25.508193 174.378200 -79.104016 -145.299904 12.008393 -31.949199 -47.530523 9.635317 2.491050 0.525036 43.720587 -0.564574 -10.153037 -61.194806 48.562893 -45.986391 15.795653 22.887062 -23.870764 
4.847653 2.333816 97.107330 -63.048574 3.120452 75.480080 23.631433 6.993395 -3.379109 7.183330 17.016493 40.967238 -5.318880 8.450698 -10.290930 nan nan nan -6.198426 -11.835490 4.847845 -3.470226 -11.803537 30.890100 5.484569 -2.826783 -15.173890 nan nan nan -6.758344 4.693753 10.581842 3.751866 -3.789375 7.145336 2.505646 1.206986 -4.059014 -0.948402 -14.988338 7.787015 9.659064 -18.967936 10.831293 -7.529472 -12.027762 -0.976982 -69.718901 -39.225688 25.591082 173.364909 -79.084453 -144.214309 12.052188 -31.704726 -47.213561 10.121195 3.044953 0.635999 42.658936 0.517790 -10.366428 -59.687364 47.741609 -45.069133 14.673453 22.825251 -24.162772 
5.085518 2.038826 96.614388 -63.337695 3.059372 75.807987 24.431125 7.137590 -3.252417 7.614613 16.867055 39.426053 -5.614837 8.482619 -10.577984 nan nan nan -6.559416 -11.629530 4.313695 -3.040080 -11.257321 31.083439 5.163629 -2.831436 -16.203209 nan nan nan -6.452338 4.229386 10.502867 3.937684 -3.796226 7.252464 2.632019 1.127685 -4.213386 -0.849416 -15.060614 7.675542 9.429565 -18.717153 11.026165 -8.110225 -12.086368 -0.978120 -69.519242 -39.472335 25.749454 173.137152 -79.121026 -144.391467 12.301031 -31.444508 -46.760523 10.690526 3.542571 0.630693 41.306044 1.387597 -10.535637 -57.949442 47.002060 -44.616803 14.479421 22.621743 -23.251128 
5.311915 1.716438 96.153229 -63.478253 3.090958 76.086386 25.249026 7.329263 -3.190078 7.801127 16.408109 37.928910 -6.054776 8.278886 -10.691029 nan nan nan -6.961550 -11.484375 3.893195 -2.496361 -10.924535 31.315482 4.961272 -2.780739 -17.237858 nan nan nan -6.180392 3.764467 10.381878 4.226839 -3.938235 7.414178 2.803976 1.082554 -4.308538 -0.810734 -15.257277 7.664612 9.251769 -18.450944 11.176906 -8.649586 -12.265648 -0.911474 -69.349014 -39.736107 25.937375 172.159198 -79.171065 -144.260379 12.016066 -31.482659 -45.586595 11.362135 4.035298 0.600164 39.736996 2.122528 -10.834118 -56.084789 46.263521 -44.795317 15.157703 22.313547 -21.094253 
5.545263 1.359893 95.689262 -63.511051 3.121847 76.459848 25.983207 7.776702 -3.459852 7.438528 15.440744 36.493320 -5.968397 7.390922 -10.127646 nan nan nan -7.465819 -11.509170 3.299486 -1.930418 -10.803003 31.713003 4.601481 -2.737582 -18.221706 nan nan nan -6.008230 3.406361 10.210368 4.594623 -4.202584 7.440384 3.009372 0.965183 -4.322939 -0.587043 -15.220585 7.677395 9.003807 -18.492574 11.223161 -8.848923 -12.536881 -0.681570 -69.434234 -40.047891 26.013720 169.890304 -79.139426 -142.190157 11.352734 -31.528311 -44.918502 11.837750 4.377747 0.469216 38.216859 3.157667 -11.702020 -53.986631 45.480360 -42.751311 17.269656 22.104081 -18.219574 
5.777567 0.962793 95.223015 -63.532824 3.091732 76.778234 26.581950 8.052366 -3.524943 6.806565 14.393103 34.919065 -6.443498 6.852262 -9.797181 nan nan nan -8.127781 -11.675140 2.667826 -1.502710 -10.952927 32.334940 4.198509 -2.528544 -19.203606 nan nan nan -5.817835 3.202094 10.070935 4.916148 -4.406346 7.533579 3.227812 0.714811 -4.322105 -0.225452 -14.915127 7.585618 8.848911 -18.821137 11.072690 -8.870132 -12.896452 -0.566085 -69.606561 -40.386660 26.060287 168.052449 -79.192994 -139.883738 11.524668 -31.413274 -44.937962 12.013967 4.745570 0.622201 37.353631 4.112822 -12.313131 -52.296522 45.178825 -41.219812 16.115492 21.753413 -19.221826 
6.003778 0.552288 94.777756 -63.424892 3.100951 76.996349 27.096372 8.400430 -3.627542 6.291269 12.752488 33.739954 -6.559476 5.491609 -9.253656 nan nan nan -8.810800 -12.215656 2.114911 -1.141692 -10.989845 33.051834 3.590872 -2.411552 -20.135841 nan nan nan -5.675346 3.041472 10.106058 5.266548 -4.675619 7.731452 3.512362 0.659430 -4.459532 -0.034246 -14.809315 7.331783 8.883816 -19.451460 11.030248 -8.782415 -13.505708 -0.697177 -69.958043 -40.649129 26.266120 166.174104 -79.382723 -137.690434 11.872063 -31.545682 -44.738972 12.449661 5.713880 1.628421 36.185868 4.256187 -13.696341 -51.579364 44.432555 -40.991264 16.161196 21.656694 -18.478154 
6.265358 0.155960 94.339371 -63.317392 3.080588 77.286775 27.453561 8.563901 -3.848865 5.648197 11.156811 32.615871 -6.572861 4.143611 -8.412933 nan nan nan -9.434036 -12.661005 1.414149 -0.954232 -11.177046 33.842621 3.032759 -2.340076 -20.966850 nan nan nan -5.594573 2.857569 10.131846 5.598017 -4.883748 7.903690 3.735488 0.480304 -4.650926 0.180851 -14.722733 7.122263 8.845156 -20.216397 11.183817 -8.509667 -13.820953 -0.775393 -70.387147 -41.087929 26.671745 164.072434 -79.522674 -135.543889 12.177112 -31.585136 -44.934624 12.701513 6.005994 1.612769 35.307255 4.780578 -14.009948 -49.962100 44.127252 -40.490397 15.500194 21.305072 -19.125077 
